<?xml version="1.0" encoding="UTF-8" standalone="no"?>
<!DOCTYPE svg PUBLIC "-//W3C//DTD SVG 1.1//EN"
 "http://www.w3.org/Graphics/SVG/1.1/DTD/svg11.dtd">
<!-- Generated by graphviz version 12.1.1 (20240910.0053)
 -->
<!-- Title: INFRA Pages: 1 -->
<svg width="356pt" height="188pt"
 viewBox="0.00 0.00 355.61 188.00" xmlns="http://www.w3.org/2000/svg" xmlns:xlink="http://www.w3.org/1999/xlink">
<g id="graph0" class="graph" transform="scale(1 1) rotate(0) translate(4 184)">
<title>INFRA</title>
<polygon fill="white" stroke="none" points="-4,4 -4,-184 351.61,-184 351.61,4 -4,4"/>
<!-- semantic&#45;search&#45;api -->
<g id="node1" class="node">
<title>semantic&#45;search&#45;api</title>
<path fill="#b7e0ff" stroke="black" stroke-width="2" d="M137.44,-72C137.44,-72 19.39,-72 19.39,-72 13.39,-72 7.39,-66 7.39,-60 7.39,-60 7.39,-12 7.39,-12 7.39,-6 13.39,0 19.39,0 19.39,0 137.44,0 137.44,0 143.44,0 149.44,-6 149.44,-12 149.44,-12 149.44,-60 149.44,-60 149.44,-66 143.44,-72 137.44,-72"/>
<text text-anchor="middle" x="78.42" y="-40.2" font-family="Arial" font-size="14.00">semantic&#45;search&#45;api</text>
<text text-anchor="middle" x="78.42" y="-23.4" font-family="Arial" font-size="14.00">(Docker::Container)</text>
</g>
<!-- semantic&#45;search&#45;nginx -->
<g id="node2" class="node">
<title>semantic&#45;search&#45;nginx</title>
<path fill="#e78f81" stroke="black" stroke-width="2" d="M144.83,-180C144.83,-180 12,-180 12,-180 6,-180 0,-174 0,-168 0,-168 0,-120 0,-120 0,-114 6,-108 12,-108 12,-108 144.83,-108 144.83,-108 150.83,-108 156.83,-114 156.83,-120 156.83,-120 156.83,-168 156.83,-168 156.83,-174 150.83,-180 144.83,-180"/>
<text text-anchor="middle" x="78.42" y="-148.2" font-family="Arial" font-size="14.00">semantic&#45;search&#45;nginx</text>
<text text-anchor="middle" x="78.42" y="-131.4" font-family="Arial" font-size="14.00">(Docker::Container)</text>
</g>
<!-- semantic&#45;search&#45;nginx&#45;&gt;semantic&#45;search&#45;api -->
<g id="edge1" class="edge">
<title>semantic&#45;search&#45;nginx&#45;&gt;semantic&#45;search&#45;api</title>
<path fill="none" stroke="black" d="M78.42,-107.7C78.42,-99.93 78.42,-91.57 78.42,-83.43"/>
<polygon fill="black" stroke="black" points="81.92,-83.66 78.42,-73.66 74.92,-83.66 81.92,-83.66"/>
</g>
<!-- semantic&#45;search&#45;network -->
<g id="node3" class="node">
<title>semantic&#45;search&#45;network</title>
<path fill="#e6e6e6" stroke="black" stroke-width="2" d="M335.61,-180C335.61,-180 187.22,-180 187.22,-180 181.22,-180 175.22,-174 175.22,-168 175.22,-168 175.22,-120 175.22,-120 175.22,-114 181.22,-108 187.22,-108 187.22,-108 335.61,-108 335.61,-108 341.61,-108 347.61,-114 347.61,-120 347.61,-120 347.61,-168 347.61,-168 347.61,-174 341.61,-180 335.61,-180"/>
<text text-anchor="middle" x="261.42" y="-148.2" font-family="Arial" font-size="14.00">semantic&#45;search&#45;network</text>
<text text-anchor="middle" x="261.42" y="-131.4" font-family="Arial" font-size="14.00">(Docker::Network)</text>
</g>
</g>
</svg>
